<?xml version="1.0" encoding="UTF-8"?><svg id="Layer_2" xmlns="http://www.w3.org/2000/svg" viewBox="0 0 311.39 211.84"><defs><style>.cls-1{fill:#fff;}</style></defs><g id="Layer_2-2"><path class="cls-1" d="M290.88,102.22v-.34c7.06-5.38,19.17-20.51,19.17-45.73,0-34.63-21.86-56.16-63.22-56.16h-94.83V19.17l10.76,1.68c4.72,.94,8.11,6.04,9.71,14.46h-55.71c1.71-8.66,5.35-13.84,10.35-14.8l10.76-1.68V0H56.49V18.83l10.76,1.68c6.73,1.35,10.76,11.1,10.76,27.24v81.37c0,46.4-10.09,57.84-25.22,57.84-12.78,0-22.87-9.08-22.87-16.14,0-6.05,3.7-11.1,8.07-15.8,5.04-5.38,6.73-11.1,6.73-17.82,0-10.09-9.75-16.81-20.85-16.81-14.46,0-23.87,11.77-23.87,34.3,0,33.29,17.49,57.16,58.85,57.16,5.62,0,9.54,0,14.69-.09h8.22v.09H255.57c33.63,0,55.82-21.52,55.82-63.55,0-18.83-6.39-34.3-20.51-46.07Zm-117.35,61.87c0,4.8-.26,9.05-.86,12.68-1.63,6.28-4.74,11.35-10.11,14.3l-6.24,2.23c-1.95,.4-4.09,.61-6.46,.61-14.29,0-18.49-8.13-18.49-19.33v-45.95h27.74v-19.9h-27.74v-36.43c0-12.89,4.2-19.61,18.49-19.61,11.22,0,21.01,7.94,23.67,23.28v88.13Zm68.26,24.21h-18.83c-7.06,0-11.43-8.74-11.43-24.21v-52.12h29.25c17.82,0,28.92,14.79,28.92,35.98,0,18.83-9.75,40.35-27.91,40.35Zm0-99.53h-30.26V49.43c0-16.48,4.37-25.56,11.43-25.56h23.87c11.1,0,22.87,14.12,22.87,35.31,0,18.16-9.42,29.59-27.91,29.59Z"/></g></svg>